<?xml version="1.0" encoding="UTF-8" standalone="no"?><svg xmlns="http://www.w3.org/2000/svg" xmlns:xlink="http://www.w3.org/1999/xlink" contentStyleType="text/css" height="497px" preserveAspectRatio="none" style="width:957px;height:497px;background:#FFFFFF;" version="1.1" viewBox="0 0 957 497" width="957px" zoomAndPan="magnify"><defs/><g><ellipse cx="465" cy="20" fill="#222222" rx="10" ry="10" style="stroke:#222222;stroke-width:1.0;"/><polygon fill="#F1F1F1" points="426.5,94,503.5,94,515.5,106,503.5,118,426.5,118,414.5,106,426.5,94" style="stroke:#181818;stroke-width:0.5;"/><text fill="#000000" font-family="sans-serif" font-size="11" lengthAdjust="spacing" textLength="77" x="426.5" y="111.0945">解析用户指令？</text><rect fill="#F1F1F1" height="36.3887" rx="12.5" ry="12.5" style="stroke:#181818;stroke-width:0.5;" width="171" x="11" y="158.0459"/><text fill="#000000" font-family="sans-serif" font-size="12" lengthAdjust="spacing" textLength="151" x="21" y="181.7979">向 MetaServer 发送查询请求</text><rect fill="#F1F1F1" height="36.3887" rx="12.5" ry="12.5" style="stroke:#181818;stroke-width:0.5;" width="104" x="44.5" y="229.4346"/><text fill="#000000" font-family="sans-serif" font-size="12" lengthAdjust="spacing" textLength="84" x="54.5" y="253.1865">接收数据并展示</text><rect fill="#F1F1F1" height="36.3887" rx="12.5" ry="12.5" style="stroke:#181818;stroke-width:0.5;" width="92" x="192" y="158.0459"/><text fill="#000000" font-family="sans-serif" font-size="12" lengthAdjust="spacing" textLength="72" x="202" y="181.7979">发送修改请求</text><rect fill="#F1F1F1" height="36.3887" rx="12.5" ry="12.5" style="stroke:#181818;stroke-width:0.5;" width="68" x="306" y="158.0459"/><text fill="#000000" font-family="sans-serif" font-size="12" lengthAdjust="spacing" textLength="48" x="316" y="181.7979">用户确认</text><polygon fill="#F1F1F1" points="315,229.4346,365,229.4346,377,241.4346,365,253.4346,315,253.4346,303,241.4346,315,229.4346" style="stroke:#181818;stroke-width:0.5;"/><text fill="#000000" font-family="sans-serif" font-size="11" lengthAdjust="spacing" textLength="50" x="315" y="246.5291">仍要退出?</text><text fill="#000000" font-family="sans-serif" font-size="11" lengthAdjust="spacing" textLength="18" x="377" y="239.0176">yes</text><ellipse cx="417" cy="241.4346" fill="none" rx="11" ry="11" style="stroke:#222222;stroke-width:1.0;"/><ellipse cx="417" cy="241.4346" fill="#222222" rx="6" ry="6" style="stroke:#111111;stroke-width:1.0;"/><rect fill="#F1F1F1" height="36.3887" rx="12.5" ry="12.5" style="stroke:#181818;stroke-width:0.5;" width="145" x="484" y="193.0459"/><text fill="#000000" font-family="sans-serif" font-size="12" lengthAdjust="spacing" textLength="125" x="494" y="216.7979">获取 ChunkServer 地址</text><rect fill="#F1F1F1" height="36.3887" rx="12.5" ry="12.5" style="stroke:#181818;stroke-width:0.5;" width="193" x="460" y="264.4346"/><text fill="#000000" font-family="sans-serif" font-size="12" lengthAdjust="spacing" textLength="173" x="470" y="288.1865">向 ChunkServer 发送读数据请求</text><rect fill="#F1F1F1" height="36.3887" rx="12.5" ry="12.5" style="stroke:#181818;stroke-width:0.5;" width="128" x="492.5" y="330.106"/><text fill="#000000" font-family="sans-serif" font-size="12" lengthAdjust="spacing" textLength="108" x="502.5" y="353.8579">接收数据并写入本地</text><rect fill="#F1F1F1" height="36.3887" rx="12.5" ry="12.5" style="stroke:#181818;stroke-width:0.5;" width="145" x="663" y="158.0459"/><text fill="#000000" font-family="sans-serif" font-size="12" lengthAdjust="spacing" textLength="125" x="673" y="181.7979">获取 ChunkServer 地址</text><rect fill="#F1F1F1" height="36.3887" rx="12.5" ry="12.5" style="stroke:#181818;stroke-width:0.5;" width="145" x="663" y="229.4346"/><text fill="#000000" font-family="sans-serif" font-size="12" lengthAdjust="spacing" textLength="125" x="673" y="253.1865">向 ChunkServer 写数据</text><rect fill="#F1F1F1" height="36.3887" rx="12.5" ry="12.5" style="stroke:#181818;stroke-width:0.5;" width="92" x="818" y="158.0459"/><text fill="#000000" font-family="sans-serif" font-size="12" lengthAdjust="spacing" textLength="72" x="828" y="181.7979">输出相关提示</text><polygon fill="#F1F1F1" points="465,376.4946,465,376.4946,477,388.4946,465,400.4946,465,400.4946,453,388.4946,465,376.4946" style="stroke:#181818;stroke-width:0.5;"/><polygon fill="#F1F1F1" points="465,50,477,62,465,74,453,62,465,50" style="stroke:#181818;stroke-width:0.5;"/><polygon fill="#F1F1F1" points="448,420.4946,482,420.4946,494,432.4946,482,444.4946,448,444.4946,436,432.4946,448,420.4946" style="stroke:#181818;stroke-width:0.5;"/><text fill="#000000" font-family="sans-serif" font-size="11" lengthAdjust="spacing" textLength="34" x="448" y="437.5891">crash?</text><ellipse cx="465" cy="475.4946" fill="none" rx="11" ry="11" style="stroke:#222222;stroke-width:1.0;"/><ellipse cx="465" cy="475.4946" fill="#222222" rx="6" ry="6" style="stroke:#111111;stroke-width:1.0;"/><line style="stroke:#181818;stroke-width:1.0;" x1="96.5" x2="96.5" y1="194.4346" y2="229.4346"/><polygon fill="#181818" points="92.5,219.4346,96.5,229.4346,100.5,219.4346,96.5,223.4346" style="stroke:#181818;stroke-width:1.0;"/><line style="stroke:#181818;stroke-width:1.0;" x1="340" x2="340" y1="253.4346" y2="388.4946"/><polygon fill="#181818" points="336,378.4946,340,388.4946,344,378.4946,340,382.4946" style="stroke:#181818;stroke-width:1.0;"/><line style="stroke:#181818;stroke-width:1.0;" x1="377" x2="406" y1="241.4346" y2="241.4346"/><polygon fill="#181818" points="396,237.4346,406,241.4346,396,245.4346,400,241.4346" style="stroke:#181818;stroke-width:1.0;"/><line style="stroke:#181818;stroke-width:1.0;" x1="340" x2="340" y1="194.4346" y2="229.4346"/><polygon fill="#181818" points="336,219.4346,340,229.4346,344,219.4346,340,223.4346" style="stroke:#181818;stroke-width:1.0;"/><line style="stroke:#181818;stroke-width:1.0;" x1="556.5" x2="556.5" y1="158.0459" y2="193.0459"/><polygon fill="#181818" points="552.5,183.0459,556.5,193.0459,560.5,183.0459,556.5,187.0459" style="stroke:#181818;stroke-width:1.0;"/><line style="stroke:#181818;stroke-width:1.0;" x1="556.5" x2="556.5" y1="229.4346" y2="264.4346"/><polygon fill="#181818" points="552.5,254.4346,556.5,264.4346,560.5,254.4346,556.5,258.4346" style="stroke:#181818;stroke-width:1.0;"/><line style="stroke:#181818;stroke-width:1.0;" x1="556.5" x2="556.5" y1="300.8232" y2="330.106"/><polygon fill="#181818" points="552.5,320.106,556.5,330.106,560.5,320.106,556.5,324.106" style="stroke:#181818;stroke-width:1.0;"/><line style="stroke:#181818;stroke-width:1.0;" x1="735.5" x2="735.5" y1="194.4346" y2="229.4346"/><polygon fill="#181818" points="731.5,219.4346,735.5,229.4346,739.5,219.4346,735.5,223.4346" style="stroke:#181818;stroke-width:1.0;"/><line style="stroke:#181818;stroke-width:1.0;" x1="414.5" x2="96.5" y1="106" y2="106"/><line style="stroke:#181818;stroke-width:1.0;" x1="96.5" x2="96.5" y1="106" y2="158.0459"/><polygon fill="#181818" points="92.5,148.0459,96.5,158.0459,100.5,148.0459,96.5,152.0459" style="stroke:#181818;stroke-width:1.0;"/><text fill="#000000" font-family="sans-serif" font-size="11" lengthAdjust="spacing" textLength="55" x="96.5" y="137.1174">查询元数据</text><line style="stroke:#181818;stroke-width:1.0;" x1="515.5" x2="864" y1="106" y2="106"/><line style="stroke:#181818;stroke-width:1.0;" x1="864" x2="864" y1="106" y2="158.0459"/><polygon fill="#181818" points="860,148.0459,864,158.0459,868,148.0459,864,152.0459" style="stroke:#181818;stroke-width:1.0;"/><text fill="#000000" font-family="sans-serif" font-size="11" lengthAdjust="spacing" textLength="55" x="864" y="137.1174">未定义指令</text><line style="stroke:#181818;stroke-width:1.0;" x1="238" x2="238" y1="106" y2="158.0459"/><polygon fill="#181818" points="234,148.0459,238,158.0459,242,148.0459,238,152.0459" style="stroke:#181818;stroke-width:1.0;"/><text fill="#000000" font-family="sans-serif" font-size="11" lengthAdjust="spacing" textLength="55" x="238" y="132.1174">修改元数据</text><line style="stroke:#181818;stroke-width:1.0;" x1="340" x2="340" y1="106" y2="158.0459"/><polygon fill="#181818" points="336,148.0459,340,158.0459,344,148.0459,340,152.0459" style="stroke:#181818;stroke-width:1.0;"/><text fill="#000000" font-family="sans-serif" font-size="11" lengthAdjust="spacing" textLength="44" x="340" y="132.1174">退出指令</text><line style="stroke:#181818;stroke-width:1.0;" x1="556.5" x2="556.5" y1="106" y2="158.0459"/><text fill="#000000" font-family="sans-serif" font-size="11" lengthAdjust="spacing" textLength="44" x="556.5" y="132.1174">上传文件</text><line style="stroke:#181818;stroke-width:1.0;" x1="735.5" x2="735.5" y1="106" y2="158.0459"/><polygon fill="#181818" points="731.5,148.0459,735.5,158.0459,739.5,148.0459,735.5,152.0459" style="stroke:#181818;stroke-width:1.0;"/><text fill="#000000" font-family="sans-serif" font-size="11" lengthAdjust="spacing" textLength="44" x="735.5" y="132.1174">下载文件</text><line style="stroke:#181818;stroke-width:1.0;" x1="96.5" x2="96.5" y1="265.8232" y2="388.4946"/><line style="stroke:#181818;stroke-width:1.0;" x1="96.5" x2="453" y1="388.4946" y2="388.4946"/><polygon fill="#181818" points="443,384.4946,453,388.4946,443,392.4946,447,388.4946" style="stroke:#181818;stroke-width:1.0;"/><line style="stroke:#181818;stroke-width:1.0;" x1="864" x2="864" y1="194.4346" y2="388.4946"/><line style="stroke:#181818;stroke-width:1.0;" x1="864" x2="477" y1="388.4946" y2="388.4946"/><polygon fill="#181818" points="487,384.4946,477,388.4946,487,392.4946,483,388.4946" style="stroke:#181818;stroke-width:1.0;"/><line style="stroke:#181818;stroke-width:1.0;" x1="238" x2="238" y1="194.4346" y2="388.4946"/><polygon fill="#181818" points="234,378.4946,238,388.4946,242,378.4946,238,382.4946" style="stroke:#181818;stroke-width:1.0;"/><line style="stroke:#181818;stroke-width:1.0;" x1="556.5" x2="556.5" y1="366.4946" y2="388.4946"/><polygon fill="#181818" points="552.5,378.4946,556.5,388.4946,560.5,378.4946,556.5,382.4946" style="stroke:#181818;stroke-width:1.0;"/><line style="stroke:#181818;stroke-width:1.0;" x1="735.5" x2="735.5" y1="265.8232" y2="388.4946"/><polygon fill="#181818" points="731.5,378.4946,735.5,388.4946,739.5,378.4946,735.5,382.4946" style="stroke:#181818;stroke-width:1.0;"/><line style="stroke:#181818;stroke-width:1.0;" x1="465" x2="465" y1="74" y2="94"/><polygon fill="#181818" points="461,84,465,94,469,84,465,88" style="stroke:#181818;stroke-width:1.0;"/><line style="stroke:#181818;stroke-width:1.0;" x1="494" x2="931" y1="432.4946" y2="432.4946"/><polygon fill="#181818" points="927,310.106,931,300.106,935,310.106,931,306.106" style="stroke:#181818;stroke-width:1.0;"/><line style="stroke:#181818;stroke-width:1.0;" x1="931" x2="931" y1="62" y2="432.4946"/><line style="stroke:#181818;stroke-width:1.0;" x1="931" x2="477" y1="62" y2="62"/><polygon fill="#181818" points="487,58,477,62,487,66,483,62" style="stroke:#181818;stroke-width:1.0;"/><line style="stroke:#181818;stroke-width:1.0;" x1="465" x2="465" y1="400.4946" y2="420.4946"/><polygon fill="#181818" points="461,410.4946,465,420.4946,469,410.4946,465,414.4946" style="stroke:#181818;stroke-width:1.0;"/><line style="stroke:#181818;stroke-width:1.0;" x1="465" x2="465" y1="30" y2="50"/><polygon fill="#181818" points="461,40,465,50,469,40,465,44" style="stroke:#181818;stroke-width:1.0;"/><line style="stroke:#181818;stroke-width:1.0;" x1="465" x2="465" y1="444.4946" y2="464.4946"/><polygon fill="#181818" points="461,454.4946,465,464.4946,469,454.4946,465,458.4946" style="stroke:#181818;stroke-width:1.0;"/><!--MD5=[cab21ba8a2a7c6ddc3d6d751a94dc131]
@startuml
start

repeat
switch (解析用户指令？)
case (查询元数据)
	:向 MetaServer 发送查询请求;
	:接收数据并展示;

case (修改元数据) 
  :发送修改请求;

case (退出指令)
  :用户确认;
	if (仍要退出?) then (yes)
		stop
	endif

case (上传文件)
	label GetAddr
  :获取 ChunkServer 地址;	
	:向 ChunkServer 发送读数据请求;
	:接收数据并写入本地;

case (下载文件)
	:获取 ChunkServer 地址;	
	:向 ChunkServer 写数据;	

case (未定义指令)
	:输出相关提示;

endswitch
repeat while (crash?)


stop
@enduml

PlantUML version 1.2022.7(Tue Aug 23 01:01:30 CST 2022)
(GPL source distribution)
Java Runtime: OpenJDK Runtime Environment
JVM: OpenJDK 64-Bit Server VM
Default Encoding: GBK
Language: zh
Country: CN
--></g></svg>